<?xml version="1.0" encoding="utf-8"?>
<!-- Generator: Adobe Illustrator 19.0.0, SVG Export Plug-In . SVG Version: 6.00 Build 0)  -->
<svg version="1.1" id="_x30_cdb4e4d-471b-45ef-b32c-d90d48ef90fc"
	 xmlns="http://www.w3.org/2000/svg" xmlns:xlink="http://www.w3.org/1999/xlink" x="0px" y="0px" viewBox="288 52.2 1135.7 856.8"
	 style="enable-background:new 288 52.2 1135.7 856.8;" xml:space="preserve">
<style type="text/css">
	.st0{enable-background:new    ;}
	.st1{clip-path:url(#SVGID_2_);}
	.st2{fill:#FF0000;}
	.st3{opacity:0.42;fill:#DADADA;}
	.st4{opacity:0.51;}
	.st5{clip-path:url(#SVGID_4_);}
	.st6{fill:#D3D3D3;}
	.st7{clip-path:url(#SVGID_6_);}
	.st8{opacity:0.38;fill:#D3D3D3;}
	.st9{opacity:0.2;fill:url(#XMLID_43_);}
	.st10{fill:url(#XMLID_44_);}
	.st11{fill:url(#XMLID_46_);}
	.st12{opacity:0.48;fill:#FFFFFF;}
	.st13{clip-path:url(#SVGID_8_);}
	.st14{fill:#EAE8E8;}
	.st15{clip-path:url(#SVGID_10_);}
	.st16{clip-path:url(#SVGID_12_);}
	.st17{fill:#FFFFFF;}
	.st18{opacity:0.48;}
	.st19{clip-path:url(#SVGID_14_);}
	.st20{clip-path:url(#SVGID_16_);}
	.st21{fill:#0BFFB9;}
	.st22{clip-path:url(#SVGID_18_);}
	.st23{clip-path:url(#SVGID_20_);}
	.st24{clip-path:url(#SVGID_22_);}
	.st25{clip-path:url(#SVGID_26_);}
	.st26{clip-path:url(#SVGID_28_);}
	.st27{clip-path:url(#SVGID_30_);}
	.st28{clip-path:url(#SVGID_32_);}
	.st29{clip-path:url(#SVGID_34_);enable-background:new    ;}
	.st30{fill:#B9E9F0;}
	.st31{fill:#B5E8EF;}
	.st32{fill:#B0E6EE;}
	.st33{fill:#ABE5ED;}
	.st34{fill:#A7E3EC;}
	.st35{fill:#A2E2EB;}
	.st36{fill:#9EE0EA;}
	.st37{fill:#99DFE9;}
	.st38{fill:#94DDE8;}
	.st39{fill:#90DCE7;}
	.st40{clip-path:url(#SVGID_36_);enable-background:new    ;}
	.st41{fill:#B2E7EE;}
	.st42{fill:#A8E4EC;}
	.st43{clip-path:url(#SVGID_38_);enable-background:new    ;}
	.st44{fill:#BEEBF1;}
	.st45{fill:#C3ECF2;}
	.st46{fill:#C7EDF3;}
	.st47{fill:#CCEFF4;}
	.st48{fill:#D1F0F5;}
	.st49{fill:#D5F2F6;}
	.st50{fill:#DAF3F7;}
	.st51{fill:#DFF5F8;}
	.st52{fill:#E3F6F9;}
	.st53{fill:#E8F8FA;}
	.st54{fill:#ECF9FB;}
	.st55{fill:#F1FBFC;}
	.st56{fill:#F6FCFD;}
	.st57{fill:#FAFEFE;}
	.st58{fill:#8BDBE6;}
	.st59{clip-path:url(#SVGID_40_);enable-background:new    ;}
	.st60{fill:#EAE9E9;}
	.st61{fill:#EBEAEA;}
	.st62{fill:#ECEBEB;}
	.st63{fill:#EDECEC;}
	.st64{fill:#EDEDED;}
	.st65{fill:#EEEEEE;}
	.st66{fill:#EFEEEE;}
	.st67{fill:#F0EFEF;}
	.st68{fill:#F1F0F0;}
	.st69{fill:#F2F1F1;}
	.st70{fill:#F3F2F2;}
	.st71{clip-path:url(#SVGID_42_);enable-background:new    ;}
	.st72{fill:#F4F3F3;}
	.st73{fill:#F4F4F4;}
	.st74{fill:#F5F5F5;}
	.st75{fill:#F6F6F6;}
	.st76{clip-path:url(#SVGID_44_);enable-background:new    ;}
	.st77{fill:#F7F7F7;}
	.st78{fill:#F8F8F8;}
	.st79{fill:#F9F9F9;}
	.st80{fill:#FAF9F9;}
	.st81{fill:#FBFAFA;}
	.st82{fill:#FBFBFB;}
	.st83{fill:#FCFCFC;}
	.st84{fill:#FDFDFD;}
	.st85{fill:#FEFEFE;}
	.st86{fill:#CD83ED;}
	.st87{fill:#83EAB4;}
	.st88{clip-path:url(#SVGID_46_);enable-background:new    ;}
	.st89{fill:#85C5FF;}
	.st90{fill:#8AC7FF;}
	.st91{fill:#8FCAFF;}
	.st92{fill:#94CCFF;}
	.st93{fill:#99CFFF;}
	.st94{fill:#9ED1FF;}
	.st95{fill:#A3D3FF;}
	.st96{fill:#A8D6FF;}
	.st97{fill:#ADD8FF;}
	.st98{fill:#B3DBFF;}
	.st99{fill:#B8DDFF;}
	.st100{fill:#BDE0FF;}
	.st101{fill:#C2E2FF;}
	.st102{fill:#C7E4FF;}
	.st103{fill:#CCE7FF;}
	.st104{clip-path:url(#SVGID_48_);enable-background:new    ;}
	.st105{fill:#D1E9FF;}
	.st106{fill:#D6ECFF;}
	.st107{fill:#DBEEFF;}
	.st108{fill:#E0F0FF;}
	.st109{fill:#E6F3FF;}
	.st110{fill:#EBF5FF;}
	.st111{fill:#F0F8FF;}
	.st112{fill:#F5FAFF;}
	.st113{fill:#FAFDFF;}
	.st114{fill:#89C7FF;}
	.st115{clip-path:url(#SVGID_50_);}
	.st116{fill:#999696;}
	.st117{clip-path:url(#SVGID_52_);enable-background:new    ;}
	.st118{fill:#75D6A6;}
	.st119{fill:#6ED4A1;}
	.st120{fill:#66D19C;}
	.st121{fill:#5ECF97;}
	.st122{fill:#57CD92;}
	.st123{clip-path:url(#SVGID_54_);enable-background:new    ;}
	.st124{fill:#47C888;}
	.st125{fill:#4FCB8D;}
	.st126{fill:#7DD8AB;}
	.st127{fill:#A8E5C6;}
	.st128{clip-path:url(#SVGID_56_);}
	.st129{clip-path:url(#SVGID_58_);}
	.st130{clip-path:url(#SVGID_60_);}
	.st131{clip-path:url(#SVGID_64_);}
	.st132{clip-path:url(#SVGID_66_);}
	.st133{clip-path:url(#SVGID_68_);}
	.st134{opacity:0.57;}
	.st135{clip-path:url(#SVGID_72_);}
	.st136{clip-path:url(#SVGID_74_);}
	.st137{clip-path:url(#SVGID_76_);}
	.st138{clip-path:url(#SVGID_80_);}
	.st139{clip-path:url(#SVGID_82_);}
	.st140{clip-path:url(#SVGID_84_);}
	.st141{clip-path:url(#SVGID_88_);}
	.st142{clip-path:url(#SVGID_90_);}
	.st143{clip-path:url(#SVGID_92_);}
	.st144{clip-path:url(#SVGID_96_);}
	.st145{clip-path:url(#SVGID_98_);}
	.st146{clip-path:url(#SVGID_100_);}
	.st147{clip-path:url(#SVGID_106_);}
	.st148{clip-path:url(#SVGID_110_);}
	.st149{clip-path:url(#SVGID_112_);}
	.st150{clip-path:url(#SVGID_115_);}
	.st151{clip-path:url(#SVGID_116_);}
	.st152{clip-path:url(#SVGID_117_);}
</style>
<title>data trends</title>
<g id="XMLID_247_">
	<g>
		<g class="st0">
			<defs>
				<polygon id="SVGID_1_" class="st0" points="739.8,665.3 880,583.8 985.5,644.7 845.3,726.2 				"/>
			</defs>
			<clipPath id="SVGID_2_">
				<use xlink:href="#SVGID_1_"  style="overflow:visible;"/>
			</clipPath>
			<g class="st1">
				<g>
					<g>
						<g>
							<polyline class="st2" points="985.5,644.7 880,583.8 739.8,665.3 845.3,726.2 985.5,644.7 							"/>
						</g>
					</g>
				</g>
			</g>
		</g>
	</g>
</g>
<polygon id="XMLID_405_" class="st3" points="628.3,533.4 878.4,680 1207.3,499.5 953.9,352 "/>
<g id="XMLID_651_" class="st4">
	<g>
		<g>
			<g class="st0">
				<defs>
					<polygon id="SVGID_3_" class="st0" points="418.8,532.3 510.5,479 602.7,532.3 511.1,585.6 					"/>
				</defs>
				<clipPath id="SVGID_4_">
					<use xlink:href="#SVGID_3_"  style="overflow:visible;"/>
				</clipPath>
				<g class="st5">
					<g>
						<g>
							<g>
								<polyline class="st6" points="602.7,532.3 510.5,479 418.8,532.3 511.1,585.6 602.7,532.3 								"/>
							</g>
						</g>
					</g>
				</g>
			</g>
		</g>
	</g>
</g>
<g id="XMLID_363_" class="st4">
	<g>
		<g class="st0">
			<defs>
				<polygon id="SVGID_5_" class="st0" points="420,508.2 526.9,446.1 634.5,508.2 527.6,570.3 				"/>
			</defs>
			<clipPath id="SVGID_6_">
				<use xlink:href="#SVGID_5_"  style="overflow:visible;"/>
			</clipPath>
			<g class="st7">
				<g>
					<g>
						<g>
							<polyline class="st6" points="634.5,508.2 526.9,446.1 420,508.2 527.6,570.3 634.5,508.2 							"/>
						</g>
					</g>
				</g>
			</g>
		</g>
	</g>
</g>
<polygon id="XMLID_204_" class="st8" points="532.4,571.1 821.9,748.9 1202.6,530 909.3,351.2 "/>
<linearGradient id="XMLID_43_" gradientUnits="userSpaceOnUse" x1="420.1218" y1="306.2856" x2="883.2019" y2="306.2856">
	<stop  offset="0" style="stop-color:#844B99"/>
	<stop  offset="1" style="stop-color:#AE00FF"/>
</linearGradient>
<polygon id="XMLID_251_" class="st9" points="527.3,559.1 420.1,260.7 815.6,53.5 883.2,339.1 "/>
<linearGradient id="XMLID_44_" gradientUnits="userSpaceOnUse" x1="886.7092" y1="-115.3791" x2="555.2368" y2="562.6327">
	<stop  offset="0" style="stop-color:#FFFFFF"/>
	<stop  offset="1" style="stop-color:#DBDBDB"/>
</linearGradient>
<polygon id="XMLID_203_" class="st10" points="532.4,571.1 446.2,272.8 841.7,65.5 909.3,351.2 "/>
<linearGradient id="XMLID_46_" gradientUnits="userSpaceOnUse" x1="658.9605" y1="314.7433" x2="1104.9639" y2="469.4381">
	<stop  offset="0" style="stop-color:#C97FFF"/>
	<stop  offset="1" style="stop-color:#8200D5"/>
</linearGradient>
<polygon id="XMLID_207_" class="st11" points="549.9,561.6 468,278.5 832.5,90.3 898.6,357.4 "/>
<polygon id="XMLID_208_" class="st12" points="543.7,424.7 504.2,317.6 600.9,267 640.4,375.9 "/>
<g id="XMLID_206_">
	<g>
		<g class="st0">
			<defs>
				<polygon id="SVGID_7_" class="st0" points="554.6,349.2 554.7,319.5 582.2,315.7 582.1,345.3 				"/>
			</defs>
			<clipPath id="SVGID_8_">
				<use xlink:href="#SVGID_7_"  style="overflow:visible;"/>
			</clipPath>
			<g class="st13">
				<g>
					<g>
						<g>
							<path class="st14" d="M568.4,317.6c-7.6,1.1-13.8,8.6-13.8,16.8c0,8.2,6.1,14,13.7,12.9c7.6-1.1,13.8-8.6,13.8-16.8
								C582.1,322.3,576,316.5,568.4,317.6"/>
						</g>
					</g>
				</g>
			</g>
		</g>
	</g>
</g>
<g id="XMLID_210_">
	<g>
		<g class="st0">
			<defs>
				<polygon id="SVGID_9_" class="st0" points="552.8,401.6 552.8,354 617.6,344.9 617.5,392.5 				"/>
			</defs>
			<clipPath id="SVGID_10_">
				<use xlink:href="#SVGID_9_"  style="overflow:visible;"/>
			</clipPath>
			<g class="st15">
				<g>
					<g>
						<g>
							<path class="st14" d="M583.4,349.7c-3.8,0.5-7.5,1.8-10.9,3.8c-16.3,9.7-24,31-17.2,47.7l62.3-32.4
								C612.2,355.7,597.4,347.7,583.4,349.7"/>
						</g>
					</g>
				</g>
			</g>
		</g>
	</g>
</g>
<g id="XMLID_209_">
	<g>
		<g class="st0">
			<defs>
				<polygon id="SVGID_11_" class="st0" points="655.2,317.6 655.3,239.1 827,215 826.8,293.4 				"/>
			</defs>
			<clipPath id="SVGID_12_">
				<use xlink:href="#SVGID_11_"  style="overflow:visible;"/>
			</clipPath>
			<g class="st16">
				<g>
					<g>
						<g>
							<path class="st17" d="M821.5,215.7c-0.2,0-0.5,0.1-0.7,0.2l-164.3,86.7c-1.1,0.6-1.7,2-1.3,3.2l3.3,9.6
								c0.3,0.9,1.2,1.4,2.1,1.3c0.2,0,0.5-0.1,0.8-0.2l164.3-86.7c1.1-0.6,1.7-2,1.3-3.2l-3.3-9.6
								C823.3,216.1,822.4,215.6,821.5,215.7"/>
						</g>
					</g>
				</g>
			</g>
		</g>
	</g>
</g>
<g id="XMLID_212_" class="st18">
	<g>
		<g class="st0">
			<defs>
				<polygon id="SVGID_13_" class="st0" points="667.1,346.3 667.2,289.1 783.7,272.8 783.6,329.9 				"/>
			</defs>
			<clipPath id="SVGID_14_">
				<use xlink:href="#SVGID_13_"  style="overflow:visible;"/>
			</clipPath>
			<g class="st19">
				<g>
					<g>
						<g>
							<path class="st17" d="M778.4,273.5c-0.2,0-0.4,0.1-0.6,0.2l-109.5,57.8c-1,0.5-1.4,1.7-1.1,2.7l3.6,10.3
								c0.3,0.8,1,1.2,1.7,1.1c0.2,0,0.4-0.1,0.6-0.2l109.5-57.8c0.9-0.5,1.4-1.7,1.1-2.7l-3.6-10.3
								C779.8,273.8,779.1,273.4,778.4,273.5"/>
						</g>
					</g>
				</g>
			</g>
		</g>
	</g>
</g>
<g id="XMLID_246_" class="st18">
	<g>
		<g class="st0">
			<defs>
				<polygon id="SVGID_15_" class="st0" points="695.1,423.6 695.2,366.4 811.6,350 811.5,407.2 				"/>
			</defs>
			<clipPath id="SVGID_16_">
				<use xlink:href="#SVGID_15_"  style="overflow:visible;"/>
			</clipPath>
			<g class="st20">
				<g>
					<g>
						<g>
							<path class="st21" d="M806.3,350.8c-0.2,0-0.4,0.1-0.6,0.2l-109.5,57.8c-0.9,0.5-1.4,1.7-1.1,2.7l3.6,10.3
								c0.3,0.8,1,1.2,1.7,1.1c0.2,0,0.4-0.1,0.6-0.2l109.5-57.8c1-0.5,1.4-1.7,1.1-2.7l-3.6-10.3
								C807.8,351.1,807.1,350.7,806.3,350.8"/>
						</g>
					</g>
				</g>
			</g>
		</g>
	</g>
</g>
<g id="XMLID_211_">
	<g>
		<g class="st0">
			<defs>
				<polygon id="SVGID_17_" class="st0" points="734,659.9 875.6,577.6 982,639.1 840.4,721.4 				"/>
			</defs>
			<clipPath id="SVGID_18_">
				<use xlink:href="#SVGID_17_"  style="overflow:visible;"/>
			</clipPath>
			<g class="st22">
				<g>
					<g>
						<g>
							<g>
								<defs>
									<polyline id="SVGID_19_" points="840.5,720.6 735.1,659.7 875.2,578.3 980.7,639.1 840.5,720.6 									"/>
								</defs>
								<clipPath id="SVGID_20_">
									<use xlink:href="#SVGID_19_"  style="overflow:visible;"/>
								</clipPath>
								<g class="st23">
									<defs>
										<polyline id="SVGID_21_" points="980.7,639.1 875.2,578.3 735.1,659.7 840.5,720.6 980.7,639.1 										"/>
									</defs>
									<clipPath id="SVGID_22_">
										<use xlink:href="#SVGID_21_"  style="overflow:visible;"/>
									</clipPath>
									<g class="st24">
										<defs>
											<polyline id="SVGID_23_" points="840.4,721.4 734,659.9 875.6,577.6 982,639.1 840.4,721.4 											"/>
										</defs>
										<clipPath id="SVGID_24_">
											<use xlink:href="#SVGID_23_"  style="overflow:visible;"/>
										</clipPath>
										<g style="clip-path:url(#SVGID_24_);">
											
												<image style="overflow:visible;" width="249" height="144" xlink:href="AFCCA0C0.png"  transform="matrix(1 0 0 1 733.9625 577.6188)">
											</image>
										</g>
									</g>
								</g>
							</g>
						</g>
					</g>
				</g>
			</g>
		</g>
	</g>
</g>
<g id="XMLID_214_">
	<g>
		<g class="st0">
			<defs>
				<polygon id="SVGID_25_" class="st0" points="868.2,622.9 892.3,609 916.5,622.9 892.4,636.9 				"/>
			</defs>
			<clipPath id="SVGID_26_">
				<use xlink:href="#SVGID_25_"  style="overflow:visible;"/>
			</clipPath>
			<g class="st25">
				<g>
					<g>
						<g>
							<path class="st17" d="M904.4,616c-6.7-3.9-17.5-3.9-24.1,0c-6.6,3.9-6.6,10.1,0.1,14c6.7,3.9,17.5,3.9,24.1,0
								C911.1,626.1,911.1,619.8,904.4,616"/>
						</g>
					</g>
				</g>
			</g>
		</g>
	</g>
</g>
<g id="XMLID_217_">
	<g>
		<g class="st0">
			<defs>
				<polygon id="SVGID_27_" class="st0" points="818.4,635.3 847.8,618.2 906.9,652.4 877.5,669.5 				"/>
			</defs>
			<clipPath id="SVGID_28_">
				<use xlink:href="#SVGID_27_"  style="overflow:visible;"/>
			</clipPath>
			<g class="st26">
				<g>
					<g>
						<g>
							<path class="st17" d="M877.4,635.3c-16.3-9.4-42.8-9.4-59,0l59.2,34.2C893.8,660.1,893.7,644.8,877.4,635.3"/>
						</g>
					</g>
				</g>
			</g>
		</g>
	</g>
</g>
<g id="XMLID_215_">
	<g>
		<g class="st0">
			<defs>
				<polygon id="SVGID_29_" class="st0" points="809.7,629.7 817.5,625.2 891,667.7 883.3,672.2 				"/>
			</defs>
			<clipPath id="SVGID_30_">
				<use xlink:href="#SVGID_29_"  style="overflow:visible;"/>
			</clipPath>
			<g class="st27">
				<g>
					<g>
						<g>
							<path class="st17" d="M889,666.5l-69.5-40.1c-1.1-0.7-3-0.7-4.1,0l-3.7,2.2c-1.1,0.7-1.1,1.7,0,2.4l69.5,40.1
								c1.1,0.7,3,0.7,4.1,0l3.7-2.2C890.1,668.2,890.1,667.1,889,666.5"/>
						</g>
					</g>
				</g>
			</g>
		</g>
	</g>
</g>
<g id="XMLID_218_" class="st4">
	<g>
		<g class="st0">
			<defs>
				<polygon id="SVGID_31_" class="st0" points="803,640.3 810.8,635.8 874.4,672.5 866.6,677.1 				"/>
			</defs>
			<clipPath id="SVGID_32_">
				<use xlink:href="#SVGID_31_"  style="overflow:visible;"/>
			</clipPath>
			<g class="st28">
				<g>
					<g>
						<g>
							<path class="st17" d="M872.5,671.4l-59.8-34.5c-1.1-0.6-2.8-0.6-3.8,0l-4,2.3c-1,0.6-1,1.6,0,2.2l59.8,34.5
								c1.1,0.6,2.8,0.6,3.8,0l4-2.3C873.5,673,873.5,672,872.5,671.4"/>
						</g>
					</g>
				</g>
			</g>
		</g>
	</g>
</g>
<g id="XMLID_216_">
	<g>
		<g class="st0">
			<g class="st0">
				<defs>
					<path id="SVGID_33_" class="st0" d="M1077.1,480.5l-14.1,8.2c1.8-1.1,2.9-3.3,2.9-6.5l14.1-8.2
						C1080.1,477.3,1078.9,479.5,1077.1,480.5z"/>
				</defs>
				<clipPath id="SVGID_34_">
					<use xlink:href="#SVGID_33_"  style="overflow:visible;"/>
				</clipPath>
				<g class="st29">
					<path class="st30" d="M1066,482.3l14.1-8.2c0,0,0,0.1,0,0.1l-14.1,8.2C1066,482.3,1066,482.3,1066,482.3"/>
					<path class="st31" d="M1066,482.4l14.1-8.2c0,0.2,0,0.5,0,0.7l-14.1,8.2C1066,482.9,1066,482.6,1066,482.4"/>
					<path class="st32" d="M1065.9,483.1l14.1-8.2c0,0.2,0,0.5-0.1,0.7l-14.1,8.2C1065.9,483.6,1065.9,483.3,1065.9,483.1"/>
					<path class="st33" d="M1065.9,483.8l14.1-8.2c0,0.2-0.1,0.5-0.1,0.7l-14.1,8.2C1065.8,484.3,1065.8,484,1065.9,483.8"/>
					<path class="st34" d="M1065.8,484.5l14.1-8.2c0,0.2-0.1,0.4-0.2,0.7l-14.1,8.2C1065.7,484.9,1065.7,484.7,1065.8,484.5"/>
					<path class="st35" d="M1065.6,485.1l14.1-8.2c-0.1,0.2-0.1,0.4-0.2,0.7l-14.1,8.2C1065.5,485.6,1065.5,485.4,1065.6,485.1"/>
					<path class="st36" d="M1065.4,485.8l14.1-8.2c-0.1,0.2-0.2,0.5-0.3,0.7l-14.1,8.2C1065.2,486.2,1065.3,486,1065.4,485.8"/>
					<path class="st37" d="M1065.1,486.5l14.1-8.2c-0.1,0.2-0.3,0.5-0.4,0.7l-14.1,8.2C1064.8,486.9,1065,486.7,1065.1,486.5"/>
					<path class="st38" d="M1064.7,487.1l14.1-8.2c-0.2,0.3-0.4,0.5-0.6,0.7l-14.1,8.2C1064.3,487.7,1064.5,487.4,1064.7,487.1"/>
					<path class="st39" d="M1064.1,487.9l14.1-8.2c-0.3,0.3-0.7,0.6-1.1,0.8l-14.1,8.2C1063.4,488.5,1063.8,488.2,1064.1,487.9"/>
				</g>
			</g>
			<g class="st0">
				<defs>
					<path id="SVGID_35_" class="st0" d="M942.4,280l14.1-8.2c1.8-1.1,4.4-0.9,7.2,0.7l-14.1,8.2C946.8,279.1,944.3,278.9,942.4,280
						z"/>
				</defs>
				<clipPath id="SVGID_36_">
					<use xlink:href="#SVGID_35_"  style="overflow:visible;"/>
				</clipPath>
				<g class="st40">
					<path class="st39" d="M942.4,280l14.1-8.2c0.8-0.5,1.8-0.7,2.8-0.7l-14.1,8.2C944.2,279.3,943.2,279.5,942.4,280"/>
					<path class="st38" d="M945.3,279.3l14.1-8.2c0.3,0,0.7,0,1,0.1l-14.1,8.2C945.9,279.4,945.6,279.3,945.3,279.3"/>
					<path class="st37" d="M946.3,279.4l14.1-8.2c0.3,0,0.6,0.1,0.9,0.2l-14.1,8.2C946.9,279.6,946.6,279.5,946.3,279.4"/>
					<path class="st36" d="M947.1,279.6l14.1-8.2c0.2,0.1,0.5,0.2,0.8,0.3l-14.1,8.2C947.7,279.8,947.4,279.7,947.1,279.6"/>
					<path class="st35" d="M947.9,279.9l14.1-8.2c0.2,0.1,0.5,0.2,0.7,0.3l-14.1,8.2C948.4,280.1,948.1,280,947.9,279.9"/>
					<path class="st34" d="M948.6,280.2l14.1-8.2c0.2,0.1,0.5,0.2,0.7,0.3l-14.1,8.2C949.1,280.4,948.8,280.3,948.6,280.2"/>
					<path class="st33" d="M949.3,280.5l14.1-8.2c0.1,0.1,0.2,0.1,0.3,0.2l-14.1,8.2C949.5,280.7,949.4,280.6,949.3,280.5"/>
				</g>
			</g>
			<g>
				<polygon class="st41" points="1066.3,359.7 1080.4,351.5 1080.1,474.1 1066,482.3 				"/>
			</g>
			<g>
				<polygon class="st42" points="949.6,280.7 963.7,272.5 1070.3,334.1 1056.2,342.3 				"/>
			</g>
			<g class="st0">
				<defs>
					<path id="SVGID_37_" class="st0" d="M1056.2,342.3l14.1-8.2c5.6,3.2,10.1,11,10.1,17.5l-14.1,8.2
						C1066.3,353.3,1061.8,345.5,1056.2,342.3z"/>
				</defs>
				<clipPath id="SVGID_38_">
					<use xlink:href="#SVGID_37_"  style="overflow:visible;"/>
				</clipPath>
				<g class="st43">
					<path class="st33" d="M1056.2,342.3l14.1-8.2c0.1,0.1,0.2,0.1,0.3,0.2l-14.1,8.2C1056.5,342.4,1056.4,342.3,1056.2,342.3"/>
					<path class="st32" d="M1056.6,342.5l14.1-8.2c0.2,0.1,0.4,0.3,0.6,0.4l-14.1,8.2C1057,342.7,1056.8,342.6,1056.6,342.5"/>
					<path class="st31" d="M1057.2,342.9l14.1-8.2c0.2,0.1,0.4,0.3,0.6,0.4l-14.1,8.2C1057.6,343.2,1057.4,343,1057.2,342.9"/>
					<path class="st30" d="M1057.8,343.3l14.1-8.2c0.2,0.1,0.4,0.3,0.5,0.4l-14.1,8.2C1058.1,343.6,1058,343.4,1057.8,343.3"/>
					<path class="st44" d="M1058.3,343.7l14.1-8.2c0.2,0.1,0.3,0.3,0.5,0.4l-14.1,8.2C1058.6,344,1058.5,343.9,1058.3,343.7"/>
					<path class="st45" d="M1058.8,344.1l14.1-8.2c0.1,0.1,0.3,0.2,0.4,0.4l-14.1,8.2C1059.1,344.4,1058.9,344.3,1058.8,344.1"/>
					<path class="st46" d="M1059.2,344.5l14.1-8.2c0.1,0.1,0.2,0.2,0.4,0.4l-14.1,8.2C1059.5,344.7,1059.3,344.6,1059.2,344.5"/>
					<path class="st47" d="M1059.6,344.9l14.1-8.2c0.1,0.1,0.2,0.2,0.3,0.3l-14.1,8.2C1059.8,345.1,1059.7,345,1059.6,344.9"/>
					<path class="st48" d="M1059.9,345.2l14.1-8.2c0.1,0.1,0.2,0.2,0.3,0.3l-14.1,8.2C1060.1,345.4,1060,345.3,1059.9,345.2"/>
					<path class="st49" d="M1060.2,345.5l14.1-8.2c0.1,0.1,0.2,0.2,0.2,0.3l-14.1,8.2C1060.4,345.7,1060.3,345.6,1060.2,345.5"/>
					<path class="st50" d="M1060.4,345.8l14.1-8.2c0.1,0.1,0.2,0.2,0.2,0.3l-14.1,8.2C1060.6,345.9,1060.5,345.8,1060.4,345.8"/>
					<path class="st51" d="M1060.7,346l14.1-8.2c0.1,0.1,0.2,0.2,0.2,0.3l-14.1,8.2C1060.8,346.2,1060.7,346.1,1060.7,346"/>
					<path class="st52" d="M1060.9,346.3l14.1-8.2c0.1,0.1,0.1,0.2,0.2,0.2l-14.1,8.2C1061,346.4,1061,346.4,1060.9,346.3"/>
					<path class="st53" d="M1061.1,346.5l14.1-8.2c0.1,0.1,0.1,0.2,0.2,0.2l-14.1,8.2C1061.2,346.7,1061.2,346.6,1061.1,346.5"/>
					<path class="st54" d="M1061.3,346.7l14.1-8.2c0.1,0.1,0.1,0.2,0.2,0.2l-14.1,8.2C1061.4,346.9,1061.3,346.8,1061.3,346.7"/>
					<path class="st55" d="M1061.5,347l14.1-8.2c0.1,0.1,0.1,0.2,0.2,0.2l-14.1,8.2C1061.6,347.1,1061.5,347.1,1061.5,347"/>
					<path class="st56" d="M1061.7,347.2l14.1-8.2c0.1,0.1,0.1,0.2,0.2,0.2l-14.1,8.2C1061.8,347.4,1061.7,347.3,1061.7,347.2"/>
					<path class="st57" d="M1061.8,347.4l14.1-8.2c0.1,0.1,0.1,0.2,0.2,0.2l-14.1,8.2C1061.9,347.6,1061.9,347.5,1061.8,347.4"/>
					<path class="st17" d="M1062,347.7l14.1-8.2c0.1,0.1,0.1,0.2,0.2,0.2l-14.1,8.2C1062.1,347.8,1062.1,347.8,1062,347.7"/>
					<path class="st17" d="M1062.2,347.9l14.1-8.2c0.1,0.1,0.1,0.2,0.2,0.3l-14.1,8.2C1062.3,348.1,1062.2,348,1062.2,347.9"/>
					<path class="st17" d="M1062.3,348.2l14.1-8.2c0.1,0.1,0.1,0.2,0.2,0.3l-14.1,8.2C1062.5,348.4,1062.4,348.3,1062.3,348.2"/>
					<path class="st17" d="M1062.5,348.4l14.1-8.2c0.1,0.1,0.1,0.2,0.2,0.3l-14.1,8.2C1062.7,348.6,1062.6,348.5,1062.5,348.4"/>
					<path class="st17" d="M1062.7,348.7l14.1-8.2c0.1,0.1,0.2,0.2,0.2,0.4l-14.1,8.2C1062.9,349,1062.8,348.8,1062.7,348.7"/>
					<path class="st17" d="M1062.9,349.1l14.1-8.2c0.1,0.2,0.2,0.3,0.3,0.5l-14.1,8.2C1063.1,349.4,1063,349.2,1062.9,349.1"/>
					<path class="st17" d="M1063.2,349.5l14.1-8.2c0.3,0.6,0.7,1.2,1,1.8l-14.1,8.2C1063.9,350.7,1063.6,350.1,1063.2,349.5"/>
					<path class="st17" d="M1064.2,351.3l14.1-8.2c0.1,0.2,0.2,0.4,0.3,0.5l-14.1,8.2C1064.4,351.7,1064.3,351.5,1064.2,351.3"/>
					<path class="st17" d="M1064.4,351.9l14.1-8.2c0.1,0.1,0.1,0.2,0.1,0.3l-14.1,8.2C1064.5,352.1,1064.5,352,1064.4,351.9"/>
					<path class="st17" d="M1064.6,352.2l14.1-8.2c0,0.1,0.1,0.2,0.1,0.3l-14.1,8.2C1064.7,352.4,1064.6,352.3,1064.6,352.2"/>
					<path class="st17" d="M1064.7,352.5l14.1-8.2c0,0.1,0.1,0.2,0.1,0.3l-14.1,8.2C1064.8,352.7,1064.8,352.6,1064.7,352.5"/>
					<path class="st17" d="M1064.9,352.8l14.1-8.2c0,0.1,0.1,0.2,0.1,0.3l-14.1,8.2C1064.9,353,1064.9,352.9,1064.9,352.8"/>
					<path class="st17" d="M1065,353.1l14.1-8.2c0,0.1,0.1,0.2,0.1,0.3l-14.1,8.2C1065,353.3,1065,353.2,1065,353.1"/>
					<path class="st57" d="M1065.1,353.4l14.1-8.2c0,0.1,0.1,0.2,0.1,0.3l-14.1,8.2C1065.1,353.6,1065.1,353.5,1065.1,353.4"/>
					<path class="st56" d="M1065.2,353.7l14.1-8.2c0,0.1,0.1,0.2,0.1,0.3l-14.1,8.2C1065.2,353.9,1065.2,353.8,1065.2,353.7"/>
					<path class="st55" d="M1065.3,354l14.1-8.2c0,0.1,0.1,0.2,0.1,0.3l-14.1,8.2C1065.3,354.2,1065.3,354.1,1065.3,354"/>
					<path class="st54" d="M1065.4,354.2l14.1-8.2c0,0.1,0.1,0.2,0.1,0.3l-14.1,8.2C1065.4,354.4,1065.4,354.3,1065.4,354.2"/>
					<path class="st53" d="M1065.5,354.5l14.1-8.2c0,0.1,0.1,0.2,0.1,0.3l-14.1,8.2C1065.5,354.7,1065.5,354.6,1065.5,354.5"/>
					<path class="st52" d="M1065.6,354.8l14.1-8.2c0,0.1,0.1,0.2,0.1,0.3l-14.1,8.2C1065.6,355.1,1065.6,354.9,1065.6,354.8"/>
					<path class="st51" d="M1065.7,355.2l14.1-8.2c0,0.1,0.1,0.2,0.1,0.3l-14.1,8.2C1065.7,355.4,1065.7,355.3,1065.7,355.2"/>
					<path class="st50" d="M1065.8,355.5l14.1-8.2c0,0.1,0.1,0.2,0.1,0.4l-14.1,8.2C1065.8,355.7,1065.8,355.6,1065.8,355.5"/>
					<path class="st49" d="M1065.8,355.9l14.1-8.2c0,0.1,0.1,0.3,0.1,0.4l-14.1,8.2C1065.9,356.2,1065.9,356,1065.8,355.9"/>
					<path class="st48" d="M1065.9,356.3l14.1-8.2c0,0.1,0.1,0.3,0.1,0.4l-14.1,8.2C1066,356.6,1066,356.4,1065.9,356.3"/>
					<path class="st47" d="M1066,356.7l14.1-8.2c0,0.2,0.1,0.4,0.1,0.5l-14.1,8.2C1066.1,357.1,1066.1,356.9,1066,356.7"/>
					<path class="st46" d="M1066.1,357.3l14.1-8.2c0,0.2,0.1,0.4,0.1,0.6l-14.1,8.2C1066.2,357.6,1066.1,357.4,1066.1,357.3"/>
					<path class="st45" d="M1066.2,357.8l14.1-8.2c0,0.2,0.1,0.4,0.1,0.7l-14.1,8.2C1066.2,358.2,1066.2,358,1066.2,357.8"/>
					<path class="st44" d="M1066.3,358.5l14.1-8.2c0,0.2,0,0.5,0,0.7l-14.1,8.2C1066.3,358.9,1066.3,358.7,1066.3,358.5"/>
					<path class="st30" d="M1066.3,359.2l14.1-8.2c0,0.2,0,0.4,0,0.6l-14.1,8.2C1066.3,359.5,1066.3,359.3,1066.3,359.2"/>
				</g>
			</g>
			<g>
				<path class="st58" d="M1056.2,342.3c5.6,3.2,10.1,11,10.1,17.5l-0.3,122.5c0,6.4-4.6,9-10.1,5.8l-106.6-61.6
					c-5.6-3.2-10.1-11-10.1-17.4l0.3-122.5c0-6.4,4.6-9,10.1-5.8L1056.2,342.3z"/>
			</g>
		</g>
	</g>
</g>
<g id="XMLID_225_">
	<g>
		<g class="st0">
			<g class="st0">
				<defs>
					<path id="SVGID_39_" class="st0" d="M993.3,272.9l7-4.1c-6.7,3.9-11,13.7-11,27.6l-7,4.1C982.3,286.6,986.7,276.8,993.3,272.9z
						"/>
				</defs>
				<clipPath id="SVGID_40_">
					<use xlink:href="#SVGID_39_"  style="overflow:visible;"/>
				</clipPath>
				<g class="st59">
					<path class="st60" d="M993.3,272.9l7-4.1c-2.2,1.3-4.2,3.3-5.9,5.9l-7,4.1C989.1,276.2,991.1,274.2,993.3,272.9"/>
					<path class="st61" d="M987.5,278.8l7-4.1c-0.5,0.8-1,1.7-1.5,2.7l-7,4.1C986.5,280.5,987,279.6,987.5,278.8"/>
					<path class="st62" d="M986,281.5l7-4.1c-0.4,0.8-0.7,1.6-1,2.5l-7,4.1C985.3,283.1,985.6,282.3,986,281.5"/>
					<path class="st63" d="M985,284l7-4.1c-0.3,0.8-0.5,1.6-0.8,2.4l-7,4.1C984.4,285.5,984.7,284.7,985,284"/>
					<path class="st64" d="M984.2,286.4l7-4.1c-0.2,0.8-0.4,1.5-0.6,2.3l-7,4.1C983.7,287.9,983.9,287.1,984.2,286.4"/>
					<path class="st65" d="M983.6,288.7l7-4.1c-0.2,0.8-0.3,1.5-0.5,2.3l-7,4.1C983.2,290.2,983.4,289.5,983.6,288.7"/>
					<path class="st66" d="M983.1,291l7-4.1c-0.1,0.7-0.2,1.5-0.3,2.3l-7,4.1C982.8,292.5,983,291.8,983.1,291"/>
					<path class="st67" d="M982.8,293.3l7-4.1c-0.1,0.8-0.2,1.5-0.2,2.3l-7,4.1C982.6,294.9,982.7,294.1,982.8,293.3"/>
					<path class="st68" d="M982.5,295.6l7-4.1c-0.1,0.8-0.1,1.6-0.1,2.3l-7,4.1C982.4,297.2,982.4,296.4,982.5,295.6"/>
					<path class="st69" d="M982.4,298l7-4.1c0,0.8-0.1,1.6-0.1,2.4l-7,4.1C982.3,299.6,982.3,298.8,982.4,298"/>
					<path class="st70" d="M982,300.4l7-4.1c0,0,0,0.1,0,0.1l-7,4.1c0,0,0-0.5,0-0.5"/>
				</g>
			</g>
			<g class="st0">
				<defs>
					<path id="SVGID_41_" class="st0" d="M988.4,264.4l7-4.1c5.8-3.4,13.1-3.2,21.1,1.4l-7,4.1C1001.5,261.2,994.2,261,988.4,264.4z
						"/>
				</defs>
				<clipPath id="SVGID_42_">
					<use xlink:href="#SVGID_41_"  style="overflow:visible;"/>
				</clipPath>
				<g class="st71">
					<path class="st60" d="M988.4,264.4l7-4.1c0.9-0.5,1.9-1,2.9-1.4l-7,4.1C990.3,263.4,989.3,263.8,988.4,264.4"/>
					<path class="st61" d="M991.3,263l7-4.1c0.7-0.3,1.5-0.5,2.3-0.6l-7,4.1C992.8,262.5,992.1,262.7,991.3,263"/>
					<path class="st62" d="M993.6,262.4l7-4.1c0.6-0.1,1.2-0.2,1.8-0.3l-7,4.1C994.8,262.2,994.2,262.3,993.6,262.4"/>
					<path class="st63" d="M995.4,262.1l7-4.1c0.5,0,1-0.1,1.6-0.1l-7,4.1C996.4,262.1,995.9,262.1,995.4,262.1"/>
					<path class="st64" d="M996.9,262.1l7-4.1c0.5,0,0.9,0,1.4,0l-7,4.1C997.9,262.1,997.4,262,996.9,262.1"/>
					<path class="st65" d="M998.4,262.1l7-4.1c0.4,0,0.8,0.1,1.3,0.1l-7,4.1C999.2,262.2,998.8,262.1,998.4,262.1"/>
					<path class="st66" d="M999.6,262.2l7-4.1c0.4,0.1,0.8,0.1,1.2,0.2l-7,4.1C1000.5,262.3,1000.1,262.3,999.6,262.2"/>
					<path class="st67" d="M1000.9,262.4l7-4.1c0.4,0.1,0.8,0.2,1.2,0.3l-7,4.1C1001.7,262.6,1001.3,262.5,1000.9,262.4"/>
					<path class="st68" d="M1002,262.7l7-4.1c0.4,0.1,0.7,0.2,1.1,0.3l-7,4.1C1002.8,262.9,1002.4,262.8,1002,262.7"/>
					<path class="st69" d="M1003.2,263l7-4.1c0.4,0.1,0.7,0.2,1.1,0.4l-7,4.1C1003.9,263.2,1003.5,263.1,1003.2,263"/>
					<path class="st70" d="M1004.3,263.4l7-4.1c0.4,0.1,0.7,0.3,1.1,0.4l-7,4.1C1005,263.6,1004.6,263.5,1004.3,263.4"/>
					<path class="st72" d="M1005.4,263.8l7-4.1c0.4,0.1,0.7,0.3,1.1,0.5l-7,4.1C1006.1,264.1,1005.7,263.9,1005.4,263.8"/>
					<path class="st73" d="M1006.4,264.2l7-4.1c0.4,0.2,0.7,0.3,1.1,0.5l-7,4.1C1007.2,264.6,1006.8,264.4,1006.4,264.2"/>
					<path class="st74" d="M1007.5,264.7l7-4.1c0.4,0.2,0.7,0.4,1.1,0.6l-7,4.1C1008.2,265.1,1007.9,264.9,1007.5,264.7"/>
					<path class="st75" d="M1008.6,265.3l7-4.1c0.3,0.2,0.6,0.3,0.8,0.5l-7,4.1C1009.2,265.6,1008.9,265.4,1008.6,265.3"/>
				</g>
			</g>
			<g class="st0">
				<defs>
					<path id="SVGID_43_" class="st0" d="M1009.5,265.8l7-4.1c18.8,10.9,34,42.3,34,70l-7,4.1C1043.5,308,1028.3,276.6,1009.5,265.8
						z"/>
				</defs>
				<clipPath id="SVGID_44_">
					<use xlink:href="#SVGID_43_"  style="overflow:visible;"/>
				</clipPath>
				<g class="st76">
					<path class="st75" d="M1009.5,265.8l7-4.1c0.1,0.1,0.2,0.1,0.3,0.2l-7,4.1C1009.6,265.9,1009.5,265.8,1009.5,265.8"/>
					<path class="st77" d="M1009.7,265.9l7-4.1c0.4,0.2,0.8,0.5,1.1,0.7l-7,4.1C1010.5,266.4,1010.1,266.1,1009.7,265.9"/>
					<path class="st78" d="M1010.8,266.6l7-4.1c0.4,0.2,0.7,0.5,1.1,0.7l-7,4.1C1011.6,267.1,1011.2,266.8,1010.8,266.6"/>
					<path class="st79" d="M1012,267.3l7-4.1c0.4,0.3,0.8,0.5,1.2,0.8l-7,4.1C1012.7,267.9,1012.4,267.6,1012,267.3"/>
					<path class="st80" d="M1013.1,268.2l7-4.1c0.4,0.3,0.8,0.6,1.2,0.9l-7,4.1C1013.9,268.8,1013.5,268.5,1013.1,268.2"/>
					<path class="st81" d="M1014.3,269.1l7-4.1c0.4,0.3,0.8,0.6,1.2,1l-7,4.1C1015.1,269.7,1014.7,269.4,1014.3,269.1"/>
					<path class="st82" d="M1015.5,270.1l7-4.1c0.4,0.3,0.8,0.7,1.2,1.1l-7,4.1C1016.3,270.8,1015.9,270.4,1015.5,270.1"/>
					<path class="st83" d="M1016.8,271.1l7-4.1c0.4,0.4,0.8,0.7,1.2,1.1l-7,4.1C1017.6,271.9,1017.2,271.5,1016.8,271.1"/>
					<path class="st84" d="M1018,272.3l7-4.1c0.4,0.4,0.8,0.8,1.2,1.2l-7,4.1C1018.8,273.1,1018.4,272.7,1018,272.3"/>
					<path class="st85" d="M1019.2,273.5l7-4.1c0.4,0.4,0.8,0.8,1.2,1.2l-7,4.1C1020,274.3,1019.6,273.9,1019.2,273.5"/>
					<path class="st17" d="M1020.4,274.7l7-4.1c0.4,0.4,0.8,0.8,1.2,1.3l-7,4.1C1021.1,275.5,1020.7,275.1,1020.4,274.7"/>
					<path class="st17" d="M1021.5,276l7-4.1c0.4,0.4,0.8,0.9,1.1,1.3l-7,4.1C1022.3,276.9,1021.9,276.4,1021.5,276"/>
					<path class="st17" d="M1022.6,277.3l7-4.1c0.4,0.5,0.8,1,1.3,1.6l-7,4.1C1023.5,278.3,1023.1,277.8,1022.6,277.3"/>
					<path class="st17" d="M1023.9,278.9l7-4.1c0.4,0.5,0.9,1.1,1.3,1.7l-7,4.1C1024.8,280,1024.3,279.4,1023.9,278.9"/>
					<path class="st17" d="M1025.2,280.5l7-4.1c0.7,0.9,1.3,1.8,2,2.8l-7,4.1C1026.5,282.4,1025.8,281.4,1025.2,280.5"/>
					<path class="st17" d="M1027.1,283.3l7-4.1c1,1.5,1.9,3,2.8,4.5l-7,4.1C1029.1,286.3,1028.1,284.8,1027.1,283.3"/>
					<path class="st17" d="M1030,287.8l7-4.1c0.7,1.1,1.3,2.2,1.9,3.4l-7,4.1C1031.3,290,1030.6,288.9,1030,287.8"/>
					<path class="st17" d="M1031.9,291.2l7-4.1c0.4,0.7,0.8,1.5,1.2,2.3l-7,4.1C1032.7,292.7,1032.3,291.9,1031.9,291.2"/>
					<path class="st17" d="M1033,293.5l7-4.1c0.4,0.7,0.7,1.4,1,2.1l-7,4.1C1033.7,294.9,1033.4,294.2,1033,293.5"/>
					<path class="st17" d="M1034.1,295.6l7-4.1c0.3,0.7,0.6,1.4,0.9,2l-7,4.1C1034.7,297,1034.4,296.3,1034.1,295.6"/>
					<path class="st17" d="M1035,297.6l7-4.1c0.3,0.7,0.6,1.4,0.9,2.1l-7,4.1C1035.6,299,1035.3,298.3,1035,297.6"/>
					<path class="st85" d="M1035.9,299.7l7-4.1c0.3,0.7,0.6,1.4,0.9,2.1l-7,4.1C1036.5,301.1,1036.2,300.4,1035.9,299.7"/>
					<path class="st84" d="M1036.7,301.8l7-4.1c0.3,0.8,0.6,1.5,0.9,2.3l-7,4.1C1037.3,303.4,1037,302.6,1036.7,301.8"/>
					<path class="st83" d="M1037.6,304.1l7-4.1c0.3,0.8,0.6,1.6,0.8,2.3l-7,4.1C1038.2,305.7,1037.9,304.9,1037.6,304.1"/>
					<path class="st82" d="M1038.4,306.5l7-4.1c0.3,0.8,0.6,1.7,0.8,2.5l-7,4.1C1039,308.2,1038.7,307.3,1038.4,306.5"/>
					<path class="st81" d="M1039.2,309l7-4.1c0.3,0.9,0.5,1.7,0.8,2.6l-7,4.1C1039.7,310.7,1039.5,309.9,1039.2,309"/>
					<path class="st80" d="M1040,311.6l7-4.1c0.2,0.9,0.5,1.8,0.7,2.7l-7,4.1C1040.5,313.4,1040.2,312.5,1040,311.6"/>
					<path class="st79" d="M1040.7,314.3l7-4.1c0.2,0.9,0.4,1.8,0.6,2.7l-7,4.1C1041.1,316.1,1040.9,315.2,1040.7,314.3"/>
					<path class="st78" d="M1041.3,317l7-4.1c0.2,0.9,0.4,1.8,0.6,2.7l-7,4.1C1041.7,318.8,1041.5,317.9,1041.3,317"/>
					<path class="st77" d="M1041.9,319.8l7-4.1c0.2,0.9,0.3,1.8,0.5,2.7l-7,4.1C1042.2,321.6,1042.1,320.7,1041.9,319.8"/>
					<path class="st75" d="M1042.4,322.5l7-4.1c0.1,0.9,0.3,1.8,0.4,2.7l-7,4.1C1042.6,324.3,1042.5,323.4,1042.4,322.5"/>
					<path class="st74" d="M1042.7,325.2l7-4.1c0.1,0.9,0.2,1.8,0.3,2.7l-7,4.1C1043,327,1042.9,326.1,1042.7,325.2"/>
					<path class="st73" d="M1043,327.9l7-4.1c0.1,0.9,0.2,1.8,0.2,2.7l-7,4.1C1043.2,329.7,1043.1,328.8,1043,327.9"/>
					<path class="st72" d="M1043.3,330.6l7-4.1c0.1,0.9,0.1,1.8,0.1,2.7l-7,4.1C1043.4,332.4,1043.3,331.5,1043.3,330.6"/>
					<path class="st70" d="M1043.4,333.3l7-4.1c0,0.8,0,1.7,0,2.5l-7,4.1C1043.4,334.9,1043.4,334.1,1043.4,333.3"/>
				</g>
			</g>
			<g>
				<path class="st61" d="M1009.5,265.8c18.8,10.9,34,42.3,34,70l-7.1-4.1c0.1-23.3-12-49.2-26.9-57.8c-14.9-8.6-27.1,3.3-27.1,26.6
					l-7.1-4.1C975.3,268.7,990.7,254.9,1009.5,265.8z"/>
			</g>
		</g>
	</g>
</g>
<path id="XMLID_224_" class="st17" d="M592.9,508.6c2.8,6.7,4.6,12.5,12.1,30.1c4.7,11,6.7,15.2,8.4,22c1.8,7.4,2.8,16.5,2,28.6
	l93.1-56.3c0,0-11.9-42.2-21.3-67.6c-9.4-25.4-33.7-60.9-33.7-60.9l-96.8,51.2C578.3,479.2,588.1,497.3,592.9,508.6z"/>
<path id="XMLID_219_" class="st86" d="M576.2,463.5l2.1,2.9c0.6,0.8,1.7,1.1,2.5,0.6l68.7-35.2c1.2-0.6,1.5-2.1,0.6-3.1l-2.8-3.4
	c-0.6-0.7-1.6-0.9-2.5-0.5l-68,35.7C575.8,461.1,575.5,462.5,576.2,463.5z"/>
<path id="XMLID_228_" class="st87" d="M609.6,461.2l0.6,0.9c0.6,0.8,1.7,1.1,2.5,0.6l44.8-22.9c1.2-0.6,1.5-2.1,0.6-3.1l-1-1.2
	c-0.6-0.7-1.6-0.9-2.5-0.5l-44.4,23.2C609.2,458.8,608.9,460.2,609.6,461.2z"/>
<g id="XMLID_226_">
	<g>
		<g class="st0">
			<g class="st0">
				<defs>
					<path id="SVGID_45_" class="st0" d="M976.3,346.6l0.7-0.4c6-3.5,14.4-3,23.6,2.3l-0.7,0.4C990.7,343.6,982.4,343.1,976.3,346.6
						z"/>
				</defs>
				<clipPath id="SVGID_46_">
					<use xlink:href="#SVGID_45_"  style="overflow:visible;"/>
				</clipPath>
				<g class="st88">
					<path class="st89" d="M976.3,346.6l0.7-0.4c0.8-0.5,1.7-0.9,2.7-1.2l-0.7,0.4C978.1,345.7,977.2,346.1,976.3,346.6"/>
					<path class="st90" d="M979,345.4l0.7-0.4c0.7-0.3,1.5-0.5,2.3-0.6l-0.7,0.4C980.6,344.9,979.8,345.1,979,345.4"/>
					<path class="st91" d="M981.3,344.8l0.7-0.4c0.6-0.1,1.3-0.2,1.9-0.3l-0.7,0.4C982.6,344.5,982,344.6,981.3,344.8"/>
					<path class="st92" d="M983.3,344.5l0.7-0.4c0.6-0.1,1.1-0.1,1.7-0.1l-0.7,0.4C984.4,344.4,983.8,344.4,983.3,344.5"/>
					<path class="st93" d="M985,344.4l0.7-0.4c0.5,0,1,0,1.6,0.1l-0.7,0.4C986,344.4,985.5,344.4,985,344.4"/>
					<path class="st94" d="M986.5,344.4l0.7-0.4c0.5,0,1,0.1,1.5,0.2l-0.7,0.4C987.5,344.5,987,344.5,986.5,344.4"/>
					<path class="st95" d="M988,344.6l0.7-0.4c0.5,0.1,1,0.1,1.5,0.2l-0.7,0.4C989,344.7,988.5,344.7,988,344.6"/>
					<path class="st96" d="M989.5,344.8l0.7-0.4c0.4,0.1,0.9,0.2,1.4,0.3l-0.7,0.4C990.4,345,989.9,344.9,989.5,344.8"/>
					<path class="st97" d="M990.8,345.1l0.7-0.4c0.5,0.1,0.9,0.2,1.4,0.4l-0.7,0.4C991.7,345.4,991.3,345.3,990.8,345.1"/>
					<path class="st98" d="M992.2,345.5l0.7-0.4c0.4,0.1,0.9,0.3,1.3,0.4l-0.7,0.4C993.1,345.8,992.6,345.6,992.2,345.5"/>
					<path class="st99" d="M993.5,345.9l0.7-0.4c0.4,0.2,0.9,0.3,1.3,0.5l-0.7,0.4C994.4,346.3,994,346.1,993.5,345.9"/>
					<path class="st100" d="M994.8,346.5l0.7-0.4c0.4,0.2,0.9,0.4,1.3,0.6l-0.7,0.4C995.7,346.8,995.3,346.6,994.8,346.5"/>
					<path class="st101" d="M996.2,347l0.7-0.4c0.4,0.2,0.9,0.4,1.3,0.6l-0.7,0.4C997.1,347.4,996.6,347.2,996.2,347"/>
					<path class="st102" d="M997.5,347.6l0.7-0.4c0.5,0.2,0.9,0.5,1.4,0.7l-0.7,0.4C998.4,348.1,998,347.9,997.5,347.6"/>
					<path class="st103" d="M998.9,348.4l0.7-0.4c0.3,0.2,0.7,0.4,1.1,0.6l-0.7,0.4C999.6,348.7,999.2,348.5,998.9,348.4"/>
				</g>
			</g>
			<g class="st0">
				<defs>
					<path id="SVGID_47_" class="st0" d="M1024,427l-0.7,0.4c5.9-3.5,9.6-10.8,9.7-21.3c0.1-21-14.7-46.6-33-57.2l0.7-0.4
						c18.3,10.6,33.1,36.2,33,57.2C1033.6,416.2,1029.9,423.5,1024,427z"/>
				</defs>
				<clipPath id="SVGID_48_">
					<use xlink:href="#SVGID_47_"  style="overflow:visible;"/>
				</clipPath>
				<g class="st104">
					<path class="st103" d="M999.9,348.9l0.7-0.4c0.1,0.1,0.2,0.1,0.3,0.2l-0.7,0.4C1000.1,349.1,1000,349,999.9,348.9"/>
					<path class="st105" d="M1000.3,349.1l0.7-0.4c0.5,0.3,0.9,0.6,1.4,0.9l-0.7,0.4C1001.2,349.7,1000.7,349.4,1000.3,349.1"/>
					<path class="st106" d="M1001.7,350l0.7-0.4c0.5,0.3,0.9,0.6,1.4,0.9l-0.7,0.4C1002.6,350.6,1002.1,350.3,1001.7,350"/>
					<path class="st107" d="M1003.1,350.9l0.7-0.4c0.5,0.3,1,0.7,1.4,1l-0.7,0.4C1004,351.6,1003.5,351.2,1003.1,350.9"/>
					<path class="st108" d="M1004.5,351.9l0.7-0.4c0.5,0.4,1,0.7,1.5,1.1l-0.7,0.4C1005.5,352.7,1005,352.3,1004.5,351.9"/>
					<path class="st109" d="M1006,353.1l0.7-0.4c0.5,0.4,1,0.8,1.5,1.2l-0.7,0.4C1006.9,353.8,1006.4,353.4,1006,353.1"/>
					<path class="st110" d="M1007.4,354.3l0.7-0.4c0.5,0.4,1,0.8,1.5,1.3l-0.7,0.4C1008.4,355.1,1007.9,354.7,1007.4,354.3"/>
					<path class="st111" d="M1008.9,355.5l0.7-0.4c0.5,0.4,1,0.9,1.5,1.4l-0.7,0.4C1009.9,356.4,1009.4,356,1008.9,355.5"/>
					<path class="st112" d="M1010.4,356.9l0.7-0.4c0.5,0.5,0.9,0.9,1.4,1.4l-0.7,0.4C1011.3,357.8,1010.8,357.3,1010.4,356.9"/>
					<path class="st113" d="M1011.8,358.3l0.7-0.4c0.5,0.5,0.9,0.9,1.4,1.4l-0.7,0.4C1012.7,359.2,1012.2,358.7,1011.8,358.3"/>
					<path class="st17" d="M1013.1,359.7l0.7-0.4c0.4,0.5,0.9,0.9,1.3,1.4l-0.7,0.4C1014,360.6,1013.5,360.2,1013.1,359.7"/>
					<path class="st17" d="M1014.4,361.1l0.7-0.4c0.4,0.5,0.9,1,1.3,1.5l-0.7,0.4C1015.3,362.1,1014.8,361.6,1014.4,361.1"/>
					<path class="st17" d="M1015.7,362.6l0.7-0.4c0.4,0.5,0.9,1,1.3,1.6l-0.7,0.4C1016.5,363.7,1016.1,363.1,1015.7,362.6"/>
					<path class="st17" d="M1017,364.2l0.7-0.4c0.5,0.6,1,1.3,1.5,1.9l-0.7,0.4C1017.9,365.5,1017.5,364.8,1017,364.2"/>
					<path class="st17" d="M1018.4,366.1l0.7-0.4c0.7,1,1.4,2,2.1,3l-0.7,0.4C1019.9,368.1,1019.2,367.1,1018.4,366.1"/>
					<path class="st17" d="M1020.5,369.1l0.7-0.4c0.9,1.3,1.7,2.6,2.5,3.9l-0.7,0.4C1022.2,371.7,1021.4,370.4,1020.5,369.1"/>
					<path class="st17" d="M1023,373l0.7-0.4c0.6,1,1.1,1.9,1.6,2.9l-0.7,0.4C1024.1,375,1023.6,374,1023,373"/>
					<path class="st17" d="M1024.6,376l0.7-0.4c0.4,0.7,0.7,1.3,1,2l-0.7,0.4C1025.3,377.3,1025,376.6,1024.6,376"/>
					<path class="st17" d="M1025.6,377.9l0.7-0.4c0.3,0.6,0.6,1.2,0.8,1.7l-0.7,0.4C1026.2,379.1,1025.9,378.5,1025.6,377.9"/>
					<path class="st17" d="M1026.5,379.7l0.7-0.4c0.2,0.5,0.5,1.1,0.7,1.6l-0.7,0.4C1027,380.8,1026.7,380.2,1026.5,379.7"/>
					<path class="st17" d="M1027.2,381.3l0.7-0.4c0.2,0.5,0.5,1.1,0.7,1.6l-0.7,0.4C1027.7,382.3,1027.5,381.8,1027.2,381.3"/>
					<path class="st113" d="M1027.9,382.9l0.7-0.4c0.2,0.5,0.4,1.1,0.6,1.6l-0.7,0.4C1028.3,383.9,1028.1,383.4,1027.9,382.9"/>
					<path class="st112" d="M1028.5,384.5l0.7-0.4c0.2,0.5,0.4,1.1,0.6,1.6l-0.7,0.4C1029,385.6,1028.8,385,1028.5,384.5"/>
					<path class="st111" d="M1029.2,386.1l0.7-0.4c0.2,0.6,0.4,1.1,0.6,1.7l-0.7,0.4C1029.6,387.2,1029.4,386.7,1029.2,386.1"/>
					<path class="st110" d="M1029.7,387.8l0.7-0.4c0.2,0.6,0.4,1.1,0.5,1.7l-0.7,0.4C1030.1,388.9,1029.9,388.4,1029.7,387.8"/>
					<path class="st109" d="M1030.3,389.5l0.7-0.4c0.2,0.6,0.3,1.2,0.5,1.8l-0.7,0.4C1030.6,390.7,1030.5,390.1,1030.3,389.5"/>
					<path class="st108" d="M1030.8,391.3l0.7-0.4c0.2,0.6,0.3,1.2,0.5,1.8l-0.7,0.4C1031.1,392.4,1031,391.8,1030.8,391.3"/>
					<path class="st107" d="M1031.3,393l0.7-0.4c0.1,0.6,0.3,1.2,0.4,1.7l-0.7,0.4C1031.5,394.2,1031.4,393.6,1031.3,393"/>
					<path class="st106" d="M1031.7,394.8l0.7-0.4c0.1,0.6,0.2,1.2,0.4,1.7l-0.7,0.4C1031.9,395.9,1031.8,395.3,1031.7,394.8"/>
					<path class="st105" d="M1032,396.5l0.7-0.4c0.1,0.6,0.2,1.1,0.3,1.7l-0.7,0.4C1032.2,397.6,1032.1,397,1032,396.5"/>
					<path class="st103" d="M1032.3,398.2l0.7-0.4c0.1,0.6,0.2,1.1,0.2,1.7l-0.7,0.4C1032.5,399.3,1032.4,398.7,1032.3,398.2"/>
					<path class="st102" d="M1032.5,399.8l0.7-0.4c0.1,0.5,0.1,1.1,0.2,1.6l-0.7,0.4C1032.7,400.9,1032.6,400.4,1032.5,399.8"/>
					<path class="st101" d="M1032.7,401.4l0.7-0.4c0.1,0.5,0.1,1.1,0.1,1.6l-0.7,0.4C1032.8,402.5,1032.8,402,1032.7,401.4"/>
					<path class="st100" d="M1032.9,403.1l0.7-0.4c0,0.5,0.1,1.1,0.1,1.6l-0.7,0.4C1032.9,404.1,1032.9,403.6,1032.9,403.1"/>
					<path class="st99" d="M1032.9,404.7l0.7-0.4c0,0.5,0,1,0,1.5c0,0,0,0.1,0,0.1l-0.7,0.4c0,0,0-0.1,0-0.1
						C1033,405.7,1032.9,405.2,1032.9,404.7"/>
					<path class="st98" d="M1033,406.2l0.7-0.4c0,0.5,0,1.1,0,1.6l-0.7,0.4C1032.9,407.3,1033,406.8,1033,406.2"/>
					<path class="st97" d="M1032.9,407.8l0.7-0.4c0,0.5-0.1,1.1-0.1,1.6l-0.7,0.4C1032.9,408.9,1032.9,408.4,1032.9,407.8"/>
					<path class="st96" d="M1032.8,409.4l0.7-0.4c0,0.5-0.1,1.1-0.2,1.6l-0.7,0.4C1032.7,410.5,1032.8,410,1032.8,409.4"/>
					<path class="st95" d="M1032.7,411l0.7-0.4c-0.1,0.5-0.1,1.1-0.2,1.6l-0.7,0.4C1032.5,412.1,1032.6,411.5,1032.7,411"/>
					<path class="st94" d="M1032.4,412.6l0.7-0.4c-0.1,0.6-0.2,1.1-0.3,1.6l-0.7,0.4C1032.2,413.7,1032.3,413.1,1032.4,412.6"/>
					<path class="st93" d="M1032.1,414.2l0.7-0.4c-0.1,0.6-0.3,1.1-0.4,1.7l-0.7,0.4C1031.8,415.4,1032,414.8,1032.1,414.2"/>
					<path class="st92" d="M1031.7,415.9l0.7-0.4c-0.2,0.6-0.4,1.2-0.6,1.7l-0.7,0.4C1031.3,417.1,1031.5,416.5,1031.7,415.9"/>
					<path class="st91" d="M1031.1,417.6l0.7-0.4c-0.2,0.7-0.5,1.3-0.8,1.9l-0.7,0.4C1030.6,418.9,1030.8,418.3,1031.1,417.6"/>
					<path class="st90" d="M1030.3,419.5l0.7-0.4c-0.4,0.8-0.8,1.6-1.3,2.3l-0.7,0.4C1029.5,421.1,1029.9,420.3,1030.3,419.5"/>
					<path class="st89" d="M1029,421.8l0.7-0.4c-1.5,2.4-3.5,4.3-5.7,5.6l-0.7,0.4C1025.6,426.1,1027.5,424.2,1029,421.8"/>
				</g>
			</g>
			<g>
				<path class="st114" d="M999.9,348.9c18.3,10.6,33.1,36.2,33,57.2c-0.1,21-14.9,29.5-33.2,18.9c-18.3-10.6-33.1-36.2-33-57.2
					C966.7,346.9,981.6,338.4,999.9,348.9z"/>
			</g>
		</g>
	</g>
</g>
<g id="XMLID_229_">
	<g>
		<g class="st0">
			<defs>
				<polygon id="SVGID_49_" class="st0" points="992.1,406 992.3,363.6 999.2,367.6 999,410 				"/>
			</defs>
			<clipPath id="SVGID_50_">
				<use xlink:href="#SVGID_49_"  style="overflow:visible;"/>
			</clipPath>
			<g class="st115">
				<g>
					<g>
						<g>
							<path class="st116" d="M997.4,366.6l-3.5-2c-0.9-0.5-1.7-0.1-1.7,1l-0.1,38.5c0,1.1,0.8,2.4,1.7,3l3.5,2
								c0.9,0.5,1.7,0.1,1.7-1l0.1-38.5C999.1,368.5,998.4,367.2,997.4,366.6"/>
						</g>
					</g>
				</g>
			</g>
		</g>
	</g>
</g>
<g id="XMLID_230_">
	<g>
		<g class="st0">
			<g class="st0">
				<defs>
					<path id="SVGID_51_" class="st0" d="M502,200.3l4.6,2.5c-10.4-5.6-22.6-8-35.8-6.2l-4.6-2.5C479.4,192.3,491.7,194.7,502,200.3
						z"/>
				</defs>
				<clipPath id="SVGID_52_">
					<use xlink:href="#SVGID_51_"  style="overflow:visible;"/>
				</clipPath>
				<g class="st117">
					<path class="st118" d="M470.8,196.6l-4.6-2.5c1.7-0.2,3.4-0.4,5-0.5l4.6,2.5C474.1,196.2,472.5,196.4,470.8,196.6"/>
					<path class="st119" d="M475.8,196.1l-4.6-2.5c3.1-0.2,6-0.1,9,0.1l4.6,2.5C481.8,196,478.9,196,475.8,196.1"/>
					<path class="st120" d="M484.8,196.3l-4.6-2.5c2.8,0.2,5.5,0.7,8.1,1.3l4.6,2.5C490.2,196.9,487.5,196.5,484.8,196.3"/>
					<path class="st121" d="M492.9,197.6l-4.6-2.5c2.7,0.6,5.3,1.5,7.8,2.4l4.6,2.5C498.1,199,495.5,198.2,492.9,197.6"/>
					<path class="st122" d="M500.6,200l-4.6-2.5c2,0.8,4,1.7,5.9,2.8l4.6,2.5C504.7,201.8,502.7,200.8,500.6,200"/>
				</g>
			</g>
			<g class="st0">
				<defs>
					<path id="SVGID_53_" class="st0" d="M434.7,335.2l-4.6-2.5c-18.7-10.2-31.1-31-31.1-56.8c0.1-40,30.1-76.6,67.2-81.8l4.6,2.5
						c-37,5.2-67.1,41.8-67.2,81.8C403.5,304.2,415.9,325,434.7,335.2z"/>
				</defs>
				<clipPath id="SVGID_54_">
					<use xlink:href="#SVGID_53_"  style="overflow:visible;"/>
				</clipPath>
				<g class="st123">
					<path class="st124" d="M434.7,335.2l-4.6-2.5c-17.1-9.3-29-27.6-30.8-50.3l4.6,2.5C405.7,307.7,417.5,325.9,434.7,335.2"/>
					<path class="st125" d="M403.8,284.9l-4.6-2.5c-0.2-2.1-0.3-4.3-0.3-6.5c0-1.8,0.1-3.6,0.2-5.4l4.6,2.5
						c-0.1,1.8-0.2,3.6-0.2,5.4C403.6,280.6,403.6,282.8,403.8,284.9"/>
					<path class="st122" d="M403.8,273l-4.6-2.5c0.2-3.3,0.7-6.6,1.3-9.9l4.6,2.5C404.4,266.4,404,269.7,403.8,273"/>
					<path class="st121" d="M405.1,263.2l-4.6-2.5c0.6-3.1,1.4-6.1,2.3-9.1l4.6,2.5C406.4,257,405.6,260.1,405.1,263.2"/>
					<path class="st120" d="M407.3,254.1l-4.6-2.5c0.9-3,2-6,3.3-8.8l4.6,2.5C409.4,248.1,408.3,251.1,407.3,254.1"/>
					<path class="st119" d="M410.6,245.2l-4.6-2.5c1.4-3.1,2.9-6.2,4.6-9.1l4.6,2.5C413.5,239.1,412,242.1,410.6,245.2"/>
					<path class="st118" d="M415.2,236.1l-4.6-2.5c2.1-3.6,4.4-6.9,6.9-10.1l4.6,2.5C419.6,229.2,417.3,232.6,415.2,236.1"/>
					<path class="st126" d="M422.1,226l-4.6-2.5c11-13.9,25.9-24.3,42.7-28.2l4.6,2.5C448.1,201.7,433.1,212,422.1,226"/>
					<path class="st118" d="M464.8,197.8l-4.6-2.5c2-0.5,4-0.8,6-1.1l4.6,2.5C468.7,196.9,466.8,197.3,464.8,197.8"/>
				</g>
			</g>
			<g>
				<path class="st127" d="M470.8,196.6c37-5.2,67,23,66.9,63s-30.2,76.6-67.2,81.8c-37,5.2-67-23-66.9-63S433.7,201.8,470.8,196.6z
					"/>
			</g>
		</g>
	</g>
</g>
<g id="XMLID_234_">
	<g>
		<path class="st17" d="M447.5,281.6c8.6,3.2,17.3,6.4,25.9,9.6c1.4,0.5,3.6-0.3,4.2-1.7c8-16.2,15.9-32.5,23.9-48.7
			c2.1-4.3-4.3-8.1-6.5-3.8c-8,16.2-15.9,32.5-23.9,48.7c1.4-0.6,2.8-1.1,4.2-1.7c-8.6-3.2-17.3-6.4-25.9-9.6
			C445,272.7,443,279.9,447.5,281.6L447.5,281.6z"/>
	</g>
</g>
<g id="XMLID_412_">
	<g>
		<g class="st0">
			<defs>
				<polygon id="SVGID_55_" class="st0" points="1155.2,643 1249.7,588.1 1344.8,643 1250.3,697.9 				"/>
			</defs>
			<clipPath id="SVGID_56_">
				<use xlink:href="#SVGID_55_"  style="overflow:visible;"/>
			</clipPath>
			<g class="st128">
				<g>
					<g>
						<g>
							<g>
								<defs>
									<polyline id="SVGID_57_" points="1250,696.9 1156.6,643 1249.4,589 1342.8,643 1250,696.9 									"/>
								</defs>
								<clipPath id="SVGID_58_">
									<use xlink:href="#SVGID_57_"  style="overflow:visible;"/>
								</clipPath>
								<g class="st129">
									<defs>
										<polyline id="SVGID_59_" points="1342.8,643 1249.4,589 1156.6,643 1250,696.9 1342.8,643 										"/>
									</defs>
									<clipPath id="SVGID_60_">
										<use xlink:href="#SVGID_59_"  style="overflow:visible;"/>
									</clipPath>
									<g class="st130">
										<defs>
											<polyline id="SVGID_61_" points="1250.3,697.9 1155.2,643 1249.7,588.1 1344.8,643 1250.3,697.9 											"/>
										</defs>
										<clipPath id="SVGID_62_">
											<use xlink:href="#SVGID_61_"  style="overflow:visible;"/>
										</clipPath>
										<g style="clip-path:url(#SVGID_62_);">
											
												<image style="overflow:visible;" width="190" height="110" xlink:href="AFCCA0C1.png"  transform="matrix(1 0 0 1 1155.2484 588.1164)">
											</image>
										</g>
									</g>
								</g>
							</g>
						</g>
					</g>
				</g>
			</g>
		</g>
	</g>
</g>
<g id="XMLID_236_">
	<g>
		<g class="st0">
			<defs>
				<polygon id="SVGID_63_" class="st0" points="667.1,811.2 761.5,756.3 855.9,810.8 761.5,865.7 				"/>
			</defs>
			<clipPath id="SVGID_64_">
				<use xlink:href="#SVGID_63_"  style="overflow:visible;"/>
			</clipPath>
			<g class="st131">
				<g>
					<g>
						<g>
							<g>
								<defs>
									<polyline id="SVGID_65_" points="762,864.9 668.6,810.9 761.4,757 854.9,810.9 762,864.9 									"/>
								</defs>
								<clipPath id="SVGID_66_">
									<use xlink:href="#SVGID_65_"  style="overflow:visible;"/>
								</clipPath>
								<g class="st132">
									<defs>
										<polyline id="SVGID_67_" points="854.9,810.9 761.4,757 668.6,810.9 762,864.9 854.9,810.9 										"/>
									</defs>
									<clipPath id="SVGID_68_">
										<use xlink:href="#SVGID_67_"  style="overflow:visible;"/>
									</clipPath>
									<g class="st133">
										<defs>
											<polyline id="SVGID_69_" points="761.5,865.7 667.1,811.2 761.5,756.3 855.9,810.8 761.5,865.7 											"/>
										</defs>
										<clipPath id="SVGID_70_">
											<use xlink:href="#SVGID_69_"  style="overflow:visible;"/>
										</clipPath>
										<g style="clip-path:url(#SVGID_70_);">
											
												<image style="overflow:visible;" width="189" height="110" xlink:href="AFCCA0C2.png"  transform="matrix(1 0 0 1 667.1031 756.3212)">
											</image>
										</g>
									</g>
								</g>
							</g>
						</g>
					</g>
				</g>
			</g>
		</g>
	</g>
</g>
<g id="XMLID_240_" class="st134">
	<g>
		<g class="st0">
			<defs>
				<polygon id="SVGID_71_" class="st0" points="1155.2,605 1249.7,550.1 1344.8,605 1250.3,659.9 				"/>
			</defs>
			<clipPath id="SVGID_72_">
				<use xlink:href="#SVGID_71_"  style="overflow:visible;"/>
			</clipPath>
			<g class="st135">
				<g>
					<g>
						<g>
							<g>
								<defs>
									<polyline id="SVGID_73_" points="1250.2,658.8 1156.8,604.8 1249.6,550.9 1343,604.8 1250.2,658.8 									"/>
								</defs>
								<clipPath id="SVGID_74_">
									<use xlink:href="#SVGID_73_"  style="overflow:visible;"/>
								</clipPath>
								<g class="st136">
									<defs>
										<polyline id="SVGID_75_" points="1343,604.8 1249.6,550.9 1156.8,604.8 1250.2,658.8 1343,604.8 										"/>
									</defs>
									<clipPath id="SVGID_76_">
										<use xlink:href="#SVGID_75_"  style="overflow:visible;"/>
									</clipPath>
									<g class="st137">
										<defs>
											<polyline id="SVGID_77_" points="1250.3,659.9 1155.2,605 1249.7,550.1 1344.8,605 1250.3,659.9 											"/>
										</defs>
										<clipPath id="SVGID_78_">
											<use xlink:href="#SVGID_77_"  style="overflow:visible;"/>
										</clipPath>
										<g style="clip-path:url(#SVGID_78_);">
											
												<image style="overflow:visible;" width="190" height="110" xlink:href="AFCCA0C3.png"  transform="matrix(1 0 0 1 1155.2484 550.1164)">
											</image>
										</g>
									</g>
								</g>
							</g>
						</g>
					</g>
				</g>
			</g>
		</g>
	</g>
</g>
<g id="XMLID_254_">
	<g>
		<g class="st0">
			<defs>
				<polygon id="SVGID_79_" class="st0" points="1149.7,131.7 1224.4,88.3 1299.6,131.7 1224.9,175.1 				"/>
			</defs>
			<clipPath id="SVGID_80_">
				<use xlink:href="#SVGID_79_"  style="overflow:visible;"/>
			</clipPath>
			<g class="st138">
				<g>
					<g>
						<g>
							<g>
								<defs>
									<polyline id="SVGID_81_" points="1225,174 1151.7,131.7 1224.6,89.4 1297.9,131.7 1225,174 									"/>
								</defs>
								<clipPath id="SVGID_82_">
									<use xlink:href="#SVGID_81_"  style="overflow:visible;"/>
								</clipPath>
								<g class="st139">
									<defs>
										<polyline id="SVGID_83_" points="1297.9,131.7 1224.6,89.4 1151.7,131.7 1225,174 1297.9,131.7 										"/>
									</defs>
									<clipPath id="SVGID_84_">
										<use xlink:href="#SVGID_83_"  style="overflow:visible;"/>
									</clipPath>
									<g class="st140">
										<defs>
											<polyline id="SVGID_85_" points="1224.9,175.1 1149.7,131.7 1224.4,88.3 1299.6,131.7 1224.9,175.1 											"/>
										</defs>
										<clipPath id="SVGID_86_">
											<use xlink:href="#SVGID_85_"  style="overflow:visible;"/>
										</clipPath>
										<g style="clip-path:url(#SVGID_86_);">
											
												<image style="overflow:visible;" width="150" height="87" xlink:href="AFCCA0C4.png"  transform="matrix(1 0 0 1 1149.7328 88.2928)">
											</image>
										</g>
									</g>
								</g>
							</g>
						</g>
					</g>
				</g>
			</g>
		</g>
	</g>
</g>
<g id="XMLID_349_">
	<g>
		<g class="st0">
			<defs>
				<polygon id="SVGID_87_" class="st0" points="1182.4,435.3 1215.5,416 1249.6,435.7 1216.5,455 				"/>
			</defs>
			<clipPath id="SVGID_88_">
				<use xlink:href="#SVGID_87_"  style="overflow:visible;"/>
			</clipPath>
			<g class="st141">
				<g>
					<g>
						<g>
							<g>
								<defs>
									<polyline id="SVGID_89_" points="1216.3,454.2 1184,435.5 1216.1,416.8 1248.5,435.5 1216.3,454.2 									"/>
								</defs>
								<clipPath id="SVGID_90_">
									<use xlink:href="#SVGID_89_"  style="overflow:visible;"/>
								</clipPath>
								<g class="st142">
									<defs>
										<polyline id="SVGID_91_" points="1248.5,435.5 1216.1,416.8 1184,435.5 1216.3,454.2 1248.5,435.5 										"/>
									</defs>
									<clipPath id="SVGID_92_">
										<use xlink:href="#SVGID_91_"  style="overflow:visible;"/>
									</clipPath>
									<g class="st143">
										<defs>
											<polyline id="SVGID_93_" points="1216.5,455 1182.4,435.3 1215.5,416 1249.6,435.7 1216.5,455 											"/>
										</defs>
										<clipPath id="SVGID_94_">
											<use xlink:href="#SVGID_93_"  style="overflow:visible;"/>
										</clipPath>
										<g style="clip-path:url(#SVGID_94_);">
											
												<image style="overflow:visible;" width="68" height="39" xlink:href="AFCCA0C5.png"  transform="matrix(1 0 0 1 1182.4115 416.045)">
											</image>
										</g>
									</g>
								</g>
							</g>
						</g>
					</g>
				</g>
			</g>
		</g>
	</g>
</g>
<g id="XMLID_252_">
	<g>
		<g class="st0">
			<defs>
				<polygon id="SVGID_95_" class="st0" points="418.4,720.8 503.7,671.2 590.2,721.2 504.9,770.7 				"/>
			</defs>
			<clipPath id="SVGID_96_">
				<use xlink:href="#SVGID_95_"  style="overflow:visible;"/>
			</clipPath>
			<g class="st144">
				<g>
					<g>
						<g>
							<g>
								<defs>
									<polyline id="SVGID_97_" points="504.7,770.2 419.7,721.1 504.1,672.1 589.1,721.1 504.7,770.2 									"/>
								</defs>
								<clipPath id="SVGID_98_">
									<use xlink:href="#SVGID_97_"  style="overflow:visible;"/>
								</clipPath>
								<g class="st145">
									<defs>
										<polyline id="SVGID_99_" points="589.1,721.1 504.1,672.1 419.7,721.1 504.7,770.2 589.1,721.1 										"/>
									</defs>
									<clipPath id="SVGID_100_">
										<use xlink:href="#SVGID_99_"  style="overflow:visible;"/>
									</clipPath>
									<g class="st146">
										<defs>
											<polyline id="SVGID_101_" points="504.9,770.7 418.4,720.8 503.7,671.2 590.2,721.2 504.9,770.7 											"/>
										</defs>
										<clipPath id="SVGID_102_">
											<use xlink:href="#SVGID_101_"  style="overflow:visible;"/>
										</clipPath>
										<g style="clip-path:url(#SVGID_102_);">
											
												<image style="overflow:visible;" width="172" height="100" xlink:href="AFCCA0CE.png"  transform="matrix(1 0 0 1 418.3789 671.2156)">
											</image>
										</g>
									</g>
								</g>
							</g>
						</g>
					</g>
				</g>
			</g>
		</g>
	</g>
</g>
<g id="XMLID_1_">
	<g>
		<g class="st0">
			<defs>
				<polygon id="SVGID_104_" class="st0" points="1064.2,285 1128.4,247.7 1192.9,285 1128.8,322.3 				"/>
			</defs>
			<clipPath id="SVGID_106_">
				<use xlink:href="#SVGID_104_"  style="overflow:visible;"/>
			</clipPath>
			<g class="st147">
				<g>
					<g>
						<g>
							<g>
								<defs>
									<polyline id="SVGID_108_" points="1128.8,321.5 1065.8,285.1 1128.4,248.7 1191.3,285.1 1128.8,321.5 									"/>
								</defs>
								<clipPath id="SVGID_110_">
									<use xlink:href="#SVGID_108_"  style="overflow:visible;"/>
								</clipPath>
								<g class="st148">
									<defs>
										<polyline id="SVGID_111_" points="1191.3,285.1 1128.4,248.7 1065.8,285.1 1128.8,321.5 1191.3,285.1 										"/>
									</defs>
									<clipPath id="SVGID_112_">
										<use xlink:href="#SVGID_111_"  style="overflow:visible;"/>
									</clipPath>
									<g class="st149">
										<defs>
											<polyline id="SVGID_113_" points="1128.8,322.3 1064.2,285 1128.4,247.7 1192.9,285 1128.8,322.3 											"/>
										</defs>
										<clipPath id="SVGID_114_">
											<use xlink:href="#SVGID_113_"  style="overflow:visible;"/>
										</clipPath>
										<g style="clip-path:url(#SVGID_114_);">
											
												<image style="overflow:visible;" width="129" height="75" xlink:href="AFCCA0CF.png"  transform="matrix(1 0 0 1 1064.2427 247.7283)">
											</image>
										</g>
									</g>
								</g>
							</g>
						</g>
					</g>
				</g>
			</g>
		</g>
	</g>
</g>
<g id="XMLID_244_">
	<g>
		<g class="st0">
			<defs>
				<polygon id="SVGID_103_" class="st0" points="1011.7,790.5 1077.3,752.4 1143.3,790.5 1077.7,828.6 				"/>
			</defs>
			<clipPath id="SVGID_115_">
				<use xlink:href="#SVGID_103_"  style="overflow:visible;"/>
			</clipPath>
			<g class="st150">
				<g>
					<g>
						<g>
							<g>
								<defs>
									<polyline id="SVGID_105_" points="1077.5,827.7 1012.9,790.4 1077.1,753.1 1141.8,790.4 1077.5,827.7 									"/>
								</defs>
								<clipPath id="SVGID_116_">
									<use xlink:href="#SVGID_105_"  style="overflow:visible;"/>
								</clipPath>
								<g class="st151">
									<defs>
										<polyline id="SVGID_107_" points="1141.8,790.4 1077.1,753.1 1012.9,790.4 1077.5,827.7 1141.8,790.4 										"/>
									</defs>
									<clipPath id="SVGID_117_">
										<use xlink:href="#SVGID_107_"  style="overflow:visible;"/>
									</clipPath>
									<g class="st152">
										<defs>
											<polyline id="SVGID_109_" points="1077.7,828.6 1011.7,790.5 1077.3,752.4 1143.3,790.5 1077.7,828.6 											"/>
										</defs>
										<clipPath id="SVGID_118_">
											<use xlink:href="#SVGID_109_"  style="overflow:visible;"/>
										</clipPath>
										<g style="clip-path:url(#SVGID_118_);">
											
												<image style="overflow:visible;" width="132" height="77" xlink:href="AFCCA0C9.png"  transform="matrix(1 0 0 1 1011.7396 752.4091)">
											</image>
										</g>
									</g>
								</g>
							</g>
						</g>
					</g>
				</g>
			</g>
		</g>
	</g>
</g>
</svg>
